<svg xmlns="http://www.w3.org/2000/svg" id="Layer_1" data-name="Layer 1" viewBox="0 0 64 64"><path d="M49.486,7.874A1,1,0,0,0,50,7V3a1,1,0,0,0-1.486-.874L38.725,7.565A4.957,4.957,0,0,0,39,6a5,5,0,1,0-6.179,4.844L21.514,17.126A1,1,0,0,0,21,18v4a1,1,0,0,0,1.515.857l8.311-4.986-.782,8.6L22.4,32.2a1,1,0,0,0-.4.8v4a1,1,0,0,0,1.594.8L44.607,22.272l-.593,3.564a1,1,0,0,0,.67,1.112l3,1a.988.988,0,0,0,.842-.1,1,1,0,0,0,.464-.709l1-6.977a4,4,0,0,0-6.312-3.8l-3.43,2.494.693-6.235ZM31,6a3,3,0,1,1,3,3A3,3,0,0,1,31,6Zm7.5,15.864a1,1,0,0,0,1.09-.055l5.263-3.828a2,2,0,0,1,3.156,1.9l-.827,5.791-1.053-.352.859-5.157a1,1,0,0,0-1.58-.968L24,35.018V33.5l7.6-5.7a1,1,0,0,0,.4-.709l1-11a1,1,0,0,0-1.511-.948L23,20.233V18.589L48,4.7V6.411l-8.486,4.715a1,1,0,0,0-.508.764l-1,9A1,1,0,0,0,38.5,21.864Z"></path><rect x="14.5" y="37.5" width="5" height="2" transform="matrix(0.8, -0.6, 0.6, 0.8, -19.704, 17.907)"></rect><rect x="6.731" y="31.34" width="13.221" height="2" transform="translate(-15.698 12.832) rotate(-33.69)"></rect><rect x="7.105" y="24.06" width="8.473" height="2" transform="matrix(0.826, -0.563, 0.563, 0.826, -12.147, 10.745)"></rect><path d="M62,29H42a1,1,0,0,0-1,1v9H22a1,1,0,0,0-1,1V52H2a1,1,0,0,0-1,1v9a1,1,0,0,0,1,1H62a1,1,0,0,0,1-1V30A1,1,0,0,0,62,29ZM61,61H3V54H22a1,1,0,0,0,1-1V41H42a1,1,0,0,0,1-1V31H61Z"></path></svg>