<svg xmlns="http://www.w3.org/2000/svg" xmlns:xlink="http://www.w3.org/1999/xlink" xml:space="preserve" width="1.70666in" height="1.70666in" style="shape-rendering:geometricPrecision; text-rendering:geometricPrecision; image-rendering:optimizeQuality; fill-rule:evenodd; clip-rule:evenodd" viewBox="0 0 1707 1707"> <defs>  <style type="text/css">       .fil0 {fill:#000002}     </style> </defs> <g id="Layer_x0020_1">  <metadata id="CorelCorpID_0Corel-Layer"></metadata>  <path class="fil0" d="M1308 821c-49,0 -88,-40 -88,-89 0,-49 39,-89 88,-89 49,0 89,40 89,89 0,49 -40,89 -89,89zm169 639c68,0 123,55 123,123 0,68 -55,124 -123,124 -59,0 -109,-42 -121,-98l-342 0c0,22 6,61 -26,61l-269 0c-32,0 -26,-39 -26,-61l-342 0c-12,56 -62,98 -121,98 -68,0 -123,-56 -123,-124 0,-68 55,-123 123,-123 59,0 109,42 121,98l342 0c0,-74 -5,-61 134,-61l0 -66 -593 0c-14,0 -26,-11 -26,-26l0 -326c0,-14 12,-26 26,-26l191 0 0 -132 -191 0c-14,0 -26,-12 -26,-26l0 -326c0,-15 12,-26 26,-26l1238 0c15,0 26,11 26,26l0 326c0,14 -11,26 -26,26l-190 0 0 132 190 0c15,0 26,12 26,26l0 326c0,15 -11,26 -26,26l-593 0 0 66c140,0 135,-13 135,61l342 0c12,-56 62,-98 121,-98zm-732 158l217 0 0 -69 -217 0 0 69zm-515 -106c-40,0 -72,32 -72,71 0,40 32,72 72,72 39,0 72,-32 72,-72 0,-39 -33,-71 -72,-71zm72 71l0 0zm1175 -71c-40,0 -72,32 -72,71 0,40 32,72 72,72 39,0 71,-32 71,-72 0,-39 -32,-71 -71,-71zm-358 -719l-533 0c-14,0 -25,-11 -25,-25l0 -72c0,-14 11,-26 25,-26l533 0c14,0 26,12 26,26l0 72c0,14 -12,25 -26,25zm-507 -51l481 0 0 -20 -481 0 0 20zm507 562l-533 0c-14,0 -25,-12 -25,-26l0 -71c0,-15 11,-26 25,-26l533 0c14,0 26,11 26,26l0 71c0,14 -12,26 -26,26zm-507 -52l481 0 0 -20 -481 0 0 20zm-78 -147l-274 0 0 275 1187 0 0 -275 -913 0 0 0zm26 -184l0 132 587 0 0 -132 -587 0zm-83 132l31 0 0 -132 -31 0 0 132zm753 0l0 -132 -31 0 0 132 31 0zm-134 -582c-89,0 -170,-50 -210,-129l-385 0c-59,0 -107,-48 -107,-107 0,-58 48,-106 107,-106l385 0c88,-174 342,-171 424,8 8,17 -5,36 -23,36l-152 0c-82,0 -82,125 0,125l152 0c18,0 31,19 23,36 -38,83 -122,137 -214,137zm-595 -290c-72,0 -72,109 0,109l402 0c10,0 20,6 24,16 53,130 228,152 313,43l-105 0c-63,0 -114,-51 -114,-114 0,-62 51,-113 114,-113l105 0c-85,-109 -259,-87 -313,43 -4,10 -14,16 -24,16l-402 0 0 0zm315 80l-153 0c-34,0 -34,-51 0,-51l153 0c33,0 33,51 0,51zm-418 1070c-48,0 -88,-40 -88,-89 0,-49 40,-88 88,-88 49,0 89,39 89,88 0,49 -40,89 -89,89zm0 -126c-20,0 -37,17 -37,37 0,21 17,37 37,37 21,0 37,-16 37,-37 0,-20 -16,-37 -37,-37zm910 126c-49,0 -88,-40 -88,-89 0,-49 39,-88 88,-88 49,0 89,39 89,88 0,49 -40,89 -89,89zm0 -126c-20,0 -37,17 -37,37 0,21 17,37 37,37 21,0 37,-16 37,-37 0,-20 -16,-37 -37,-37zm-1048 -336l1187 0 0 -274 -1187 0 0 274zm138 -48c-48,0 -88,-40 -88,-89 0,-49 40,-89 88,-89 49,0 89,40 89,89 0,49 -40,89 -89,89zm0 -126c-20,0 -37,17 -37,37 0,20 17,37 37,37 21,0 37,-17 37,-37 0,-20 -16,-37 -37,-37zm910 0c-20,0 -37,17 -37,37 0,20 17,37 37,37 21,0 37,-17 37,-37 0,-20 -16,-37 -37,-37z"></path> </g></svg>